<?xml version="1.0" encoding="UTF-8" standalone="no"?>
<!DOCTYPE svg PUBLIC "-//W3C//DTD SVG 1.1//EN"
 "http://www.w3.org/Graphics/SVG/1.1/DTD/svg11.dtd">
<!-- Generated by graphviz version 2.38.0 (20140413.2041)
 -->
<!-- Title: population_modelling Pages: 1 -->
<svg width="208pt" height="78pt"
 viewBox="0.00 0.00 208.09 77.63" xmlns="http://www.w3.org/2000/svg" xmlns:xlink="http://www.w3.org/1999/xlink">
<g id="graph0" class="graph" transform="scale(1 1) rotate(0) translate(4 73.6349)">
<title>population_modelling</title>
<polygon fill="white" stroke="none" points="-4,4 -4,-73.6349 204.093,-73.6349 204.093,4 -4,4"/>
<!-- Town -->
<g id="node1" class="node"><title>Town</title>
<ellipse fill="none" stroke="black" cx="30.1212" cy="-19.6349" rx="30.2429" ry="18"/>
<text text-anchor="middle" x="30.1212" y="-15.4349" font-family="Times,serif" font-size="14.00">Town</text>
</g>
<!-- Town&#45;&gt;Town -->
<g id="edge1" class="edge"><title>Town&#45;&gt;Town</title>
<path fill="none" stroke="black" d="M19.4892,-36.6722C17.3194,-46.4928 20.8634,-55.6349 30.1212,-55.6349 35.9073,-55.6349 39.4615,-52.0638 40.7837,-46.9878"/>
<polygon fill="black" stroke="black" points="44.2829,-46.6618 40.7532,-36.6722 37.2829,-46.6825 44.2829,-46.6618"/>
<text text-anchor="middle" x="30.1212" y="-58.4349" font-family="Times,serif" font-size="14.00">90%</text>
</g>
<!-- Country -->
<g id="node2" class="node"><title>Country</title>
<ellipse fill="none" stroke="black" cx="160.999" cy="-19.6349" rx="39.1887" ry="18"/>
<text text-anchor="middle" x="160.999" y="-15.4349" font-family="Times,serif" font-size="14.00">Country</text>
</g>
<!-- Town&#45;&gt;Country -->
<g id="edge2" class="edge"><title>Town&#45;&gt;Country</title>
<path fill="none" stroke="black" d="M60.3655,-19.6349C75.3719,-19.6349 94.0517,-19.6349 111.168,-19.6349"/>
<polygon fill="black" stroke="black" points="111.577,-23.135 121.577,-19.6349 111.577,-16.135 111.577,-23.135"/>
<text text-anchor="middle" x="91.0735" y="-22.4349" font-family="Times,serif" font-size="14.00">10%</text>
</g>
<!-- Country&#45;&gt;Town -->
<g id="edge3" class="edge"><title>Country&#45;&gt;Town</title>
<path fill="none" stroke="black" d="M131.341,-7.60516C115.701,-2.48608 95.9652,1.63488 78.2424,-1.63488 73.6619,-2.47996 68.9507,-3.75087 64.3609,-5.23419"/>
<polygon fill="black" stroke="black" points="62.8331,-2.06392 54.6045,-8.73784 65.199,-8.65199 62.8331,-2.06392"/>
<text text-anchor="middle" x="91.0735" y="-4.43488" font-family="Times,serif" font-size="14.00">20%</text>
</g>
<!-- Country&#45;&gt;Country -->
<g id="edge4" class="edge"><title>Country&#45;&gt;Country</title>
<path fill="none" stroke="black" d="M148.859,-37.0448C146.593,-46.7228 150.639,-55.6349 160.999,-55.6349 167.473,-55.6349 171.482,-52.1536 173.025,-47.1798"/>
<polygon fill="black" stroke="black" points="176.526,-47.0835 173.139,-37.0448 169.526,-47.0048 176.526,-47.0835"/>
<text text-anchor="middle" x="160.999" y="-58.4349" font-family="Times,serif" font-size="14.00">80%</text>
</g>
</g>
</svg>
